<svg xmlns="http://www.w3.org/2000/svg" width="80.803" height="57.4" viewBox="0 0 80.803 57.4"><path d="M22.526,88.031H10.836a1.674,1.674,0,1,1,0-3.348h11.69a1.674,1.674,0,1,1,0,3.348Zm-4.985,6.8H24.19a1.674,1.674,0,1,0,0-3.348H17.542a1.674,1.674,0,1,0,0,3.348Zm-8.5-1.674a1.674,1.674,0,0,0-1.674-1.674H3.377a1.674,1.674,0,1,0,0,3.348H7.369A1.674,1.674,0,0,0,9.043,93.162Zm22-13.609a1.674,1.674,0,0,0-1.674-1.674H1.674a1.674,1.674,0,0,0,0,3.348H29.365A1.674,1.674,0,0,0,31.039,79.552ZM80.792,100.27l-.007,1.54c0,.986-.01,2.108-.01,3.476a6.217,6.217,0,0,1-4.94,5.776,10.681,10.681,0,1,1-.108-3.507,2.672,2.672,0,0,0,1.7-2.269c0-1.374.005-2.5.01-3.491l.007-1.54c.009-1.987.022-4.709-.007-5.987-.009-.406-.02-.782-.037-1.133H36.088c-4.545,0-6.216-4.052-6.766-5.384a1.674,1.674,0,1,1,3.095-1.277c.958,2.322,2.056,3.313,3.671,3.313H76.807c-.7-1.657-2.207-2.991-5.516-5.922-.666-.59-1.4-1.238-2.2-1.958-.578-.519-1.159-1.073-1.72-1.61-.832-.8-1.693-1.618-2.6-2.376q-1.174-.984-2.229-1.873c-8.926-7.515-11.619-9.783-19.477-9.783H12.25c-1.921,0-3.545,1.225-3.545,2.675v4a1.674,1.674,0,0,1-3.348,0v-4c0-3.321,3.092-6.022,6.892-6.022H43.067c9.079,0,12.5,2.878,21.633,10.57q1.054.888,2.222,1.868c.989.829,1.891,1.69,2.762,2.522.568.543,1.1,1.055,1.643,1.538.8.715,1.523,1.359,2.184,1.944,5.757,5.1,7.125,6.313,7.273,12.833C80.814,95.515,80.8,98.152,80.792,100.27Zm-8.21,9.387c0-.022,0-.044,0-.066a7.325,7.325,0,1,0,0,.066Zm-51.665-1.7h-.006a1.677,1.677,0,1,0,.006,0Zm44.333,0h-.007a1.677,1.677,0,1,0,.007,0Zm-14.2,1.674a1.674,1.674,0,0,1-1.674,1.674H31.465a10.684,10.684,0,0,1-21.138-.237,6.65,6.65,0,0,1-4.4-3.384,5.343,5.343,0,0,1-.571-2.4v-4.959a1.674,1.674,0,0,1,3.348,0v4.959a2.025,2.025,0,0,0,.22.909,3.092,3.092,0,0,0,1.506,1.377,10.684,10.684,0,0,1,21.034.388H49.375A1.674,1.674,0,0,1,51.048,109.634Zm-22.8,0a7.335,7.335,0,0,0-14.67-.02v.023a7.335,7.335,0,0,0,14.67,0Z" transform="translate(0 -62.917)"/></svg>